<svg width="26" height="26" viewBox="0 0 26 26" fill="none" xmlns="http://www.w3.org/2000/svg">
<path fill-rule="evenodd" clip-rule="evenodd" d="M21.2945 13.7976C21.6937 13.7414 22.0005 13.3931 21.9992 12.9727C21.9978 12.5142 21.6304 12.1435 21.1785 12.1449L6.79684 12.1883L11.9762 6.92152L12.0553 6.82832C12.2927 6.50304 12.2658 6.04178 11.975 5.74727C11.6552 5.4233 11.1372 5.42378 10.818 5.74833L4.24974 12.4267C4.21064 12.4649 4.17528 12.5071 4.14427 12.5525C3.9222 12.8774 3.95498 13.3272 4.24174 13.6152L10.8618 20.2644L10.954 20.3443C11.2756 20.5838 11.73 20.5546 12.0189 20.2583C12.3368 19.9324 12.3341 19.4067 12.0129 19.0841L6.80056 13.8489L21.1835 13.8055L21.2945 13.7976Z" fill="white"/>
</svg>
